<svg class="animated" id="freepik_stories-to-the-stars" xmlns="http://www.w3.org/2000/svg" viewBox="0 0 500 500" version="1.1" xmlns:xlink="http://www.w3.org/1999/xlink" xmlns:svgjs="http://svgjs.com/svgjs"><style>svg#freepik_stories-to-the-stars:not(.animated) .animable {opacity: 0;}svg#freepik_stories-to-the-stars.animated #freepik--Rocket--inject-3 {animation: 0.9s 1 forwards linear slideUp,6s Infinite  linear floating;animation-delay: 0s,0.9s;}            @keyframes slideUp {                0% {                    opacity: 0;                    transform: translateY(30px);                }                100% {                    opacity: 1;                    transform: inherit;                }            }                    @keyframes floating {                0% {                    opacity: 1;                    transform: translateY(0px);                }                50% {                    transform: translateY(-10px);                }                100% {                    opacity: 1;                    transform: translateY(0px);                }            }        .animator-hidden { display: none; }</style><g id="freepik--background-complete--inject-3" class="animable animator-active" style="transform-origin: 249.705px 228.526px;"><path d="M324.17,90l.56,1a6.85,6.85,0,0,0,2.71,2.68l1,.55-1,.55a6.81,6.81,0,0,0-2.71,2.69l-.56,1-.55-1a6.81,6.81,0,0,0-2.71-2.69l-1-.55,1-.55A6.85,6.85,0,0,0,323.62,91Z" style="fill: rgb(235, 235, 235); transform-origin: 324.175px 94.235px;" id="elu6jtd5xvbk" class="animable"></path><path d="M113.84,44.77l.56,1a6.7,6.7,0,0,0,2.7,2.68l1,.56-1,.55a6.76,6.76,0,0,0-2.7,2.68l-.56,1-.56-1a6.76,6.76,0,0,0-2.7-2.68l-1-.55,1-.56a6.7,6.7,0,0,0,2.7-2.68Z" style="fill: rgb(235, 235, 235); transform-origin: 113.84px 49.005px;" id="elmrny3dxa4a" class="animable"></path><path d="M444.31,154.69l.56,1a6.72,6.72,0,0,0,2.71,2.68l1,.55-1,.55a6.72,6.72,0,0,0-2.71,2.68l-.56,1-.56-1a6.76,6.76,0,0,0-2.7-2.68l-1-.55,1-.55a6.76,6.76,0,0,0,2.7-2.68Z" style="fill: rgb(235, 235, 235); transform-origin: 444.315px 158.92px;" id="el8psqcgdbgsn" class="animable"></path><path d="M33.24,224.31l.55,1A6.85,6.85,0,0,0,36.5,228l1,.55-1,.55a6.85,6.85,0,0,0-2.71,2.68l-.55,1-.56-1A6.72,6.72,0,0,0,30,229.1l-1-.55,1-.55a6.72,6.72,0,0,0,2.71-2.68Z" style="fill: rgb(235, 235, 235); transform-origin: 33.25px 228.545px;" id="els4z9d6ywtle" class="animable"></path><path d="M224.51,41.69l1,1.75a11.63,11.63,0,0,0,4.63,4.62l1.74,1-1.74.95a11.65,11.65,0,0,0-4.63,4.63l-1,1.74-.95-1.74A11.65,11.65,0,0,0,218.93,50L217.19,49l1.74-1a11.63,11.63,0,0,0,4.63-4.62Z" style="fill: rgb(235, 235, 235); transform-origin: 224.535px 49.035px;" id="elrod21svc8wi" class="animable"></path><path d="M94.63,127.27l1,1.74a11.72,11.72,0,0,0,4.63,4.63l1.74,1-1.74.95a11.72,11.72,0,0,0-4.63,4.63l-1,1.74-.95-1.74a11.65,11.65,0,0,0-4.63-4.63l-1.74-.95,1.74-1A11.65,11.65,0,0,0,93.68,129Z" style="fill: rgb(235, 235, 235); transform-origin: 94.655px 134.615px;" id="elc3x6vc3xxme" class="animable"></path><path d="M418,69.38l.28.5a3.32,3.32,0,0,0,1.34,1.34l.5.28-.5.28a3.32,3.32,0,0,0-1.34,1.34l-.28.5-.27-.5a3.39,3.39,0,0,0-1.34-1.34l-.51-.28.51-.28a3.39,3.39,0,0,0,1.34-1.34Z" style="fill: rgb(235, 235, 235); transform-origin: 418px 71.5px;" id="elle3e9z9df9c" class="animable"></path><path d="M41.23,149.54l.28.51a3.32,3.32,0,0,0,1.34,1.34l.5.28-.5.27a3.39,3.39,0,0,0-1.34,1.34l-.28.51-.27-.51a3.45,3.45,0,0,0-1.34-1.34l-.51-.27.51-.28A3.39,3.39,0,0,0,41,150.05Z" style="fill: rgb(235, 235, 235); transform-origin: 41.23px 151.665px;" id="elqgsglyx76pk" class="animable"></path><path d="M101,392.34c7.46,7.1,15.06,16.73,25.32,15.76C137.61,407,146,393,157,395.56c6,1.39,9.63,7.18,14.38,11,9.55,7.72,24,7.16,34.66,1.15s18.2-16.49,23.68-27.47C246,347.76,247.05,310,246.69,273.69L250,151.75l3.31,125c-.36,36.32.71,74.06,16.93,106.56,5.48,11,13,21.47,23.68,27.48s25.11,6.56,34.66-1.15c4.75-3.84,8.43-9.63,14.38-11,11-2.57,19.43,11.48,30.71,12.54,10.26,1,17.86-8.66,25.32-15.76a66.16,66.16,0,0,1,38.42-17.36,202.16,202.16,0,0,0,11.18-66.5c0-111.8-90.63-202.44-202.43-202.44S43.72,199.75,43.72,311.55a202.14,202.14,0,0,0,10,63C71,374.23,88.47,380.42,101,392.34Z" style="fill: rgb(235, 235, 235); transform-origin: 246.155px 262.241px;" id="elpmsp6yi7eh" class="animable"></path><path d="M355.15,262H479.41s-11-20-43-17.08c-30.55,2.78-32.1-9.84-47.63-11.39S360.33,243.92,355.15,262Z" style="fill: rgb(255, 255, 255); transform-origin: 417.28px 247.698px;" id="el136c9x98271e" class="animable"></path><path d="M20,287.68H99.39s-7-12.79-27.47-10.93c-19.53,1.78-20.52-6.28-30.45-7.28S23.26,276.09,20,287.68Z" style="fill: rgb(255, 255, 255); transform-origin: 59.695px 278.531px;" id="eldfgoofj332f" class="animable"></path><path d="M208.9,406c.51-.33,1-.67,1.49-1l.66-.5c.48-.37,1-.74,1.42-1.12l.57-.47c.53-.46,1.06-.92,1.58-1.4l.3-.28a58.47,58.47,0,0,0,5.47-6l0,0c.57-.71,1.12-1.43,1.66-2.17h0c-6.71-.47-13.61.42-20-1.54-13.13-4-20.39-18.54-32.9-24.19-16.48-7.45-37.81,2.27-53-7.57-11.4-7.38-14.26-22.54-21.57-34-10.83-17-31.4-26-50.74-20.42q-.11,3.12-.11,6.25A202.56,202.56,0,0,0,53,372.15c.47.81.93,1.62,1.43,2.44.18,0,.37,0,.55,0l2.53,0,.64,0c.86,0,1.71.08,2.56.15.21,0,.42,0,.62.06.86.07,1.72.16,2.57.27l.62.08c.85.12,1.7.24,2.55.39l.63.12c.84.16,1.68.32,2.51.5l.67.16c.81.19,1.63.38,2.44.6l.72.21c.78.22,1.57.45,2.35.7l.78.27c.75.25,1.5.5,2.24.78l.85.34c.71.27,1.42.55,2.11.85.32.13.63.28.94.42.66.3,1.32.59,2,.91.35.16.69.35,1,.53.61.3,1.21.61,1.81.93.38.21.74.44,1.12.65.55.32,1.1.63,1.64,1l1.23.79,1.46.95c.46.32.9.66,1.36,1s.83.59,1.23.9,1,.84,1.57,1.26c.3.26.62.5.93.76.81.69,1.61,1.41,2.39,2.15,7.46,7.1,15.06,16.73,25.32,15.76C137.61,407,146,393,157,395.56c6,1.39,9.63,7.18,14.38,11,9.55,7.72,24,7.16,34.66,1.15.75-.41,1.47-.86,2.19-1.32Z" style="fill: rgb(224, 224, 224); transform-origin: 132.89px 357.988px;" id="elbzwjjbt8lzh" class="animable"></path><path d="M401.6,393.08l1.39-1.15c.25-.2.52-.39.78-.59.44-.34.88-.68,1.33-1l.83-.59,1.34-.92.85-.55c.46-.29.92-.59,1.39-.87.28-.18.57-.34.85-.5l1.44-.83.86-.46,1.5-.78.84-.4c.52-.25,1-.5,1.56-.74l.83-.36,1.62-.68.81-.32,1.68-.63.79-.27,1.74-.58.77-.23c.6-.18,1.19-.36,1.79-.52l.76-.2,1.83-.45.75-.17,1.87-.38.73-.14c.63-.11,1.26-.22,1.9-.31l.72-.11,1.06-.15c.79-1.1,1.54-2.19,2.25-3.29a202,202,0,0,0,10.13-63.35q0-6.14-.37-12.18c-19.53-4.9-37.9,5-48.12,22.39-6.9,11.7-9.23,26.95-20.36,34.74-14.83,10.36-36.48,1.39-52.7,9.42C314.75,372,308,386.79,295,391.26c-6,2.07-12.6,1.58-19,2.14h0c.53.78,1.07,1.56,1.63,2.32.14.21.29.41.44.61.46.61.92,1.22,1.39,1.81l.41.51c.59.74,1.21,1.46,1.84,2.16l.33.37c.53.58,1.07,1.15,1.62,1.7l.57.57c.56.56,1.14,1.1,1.73,1.63l.35.32c.7.61,1.42,1.2,2.15,1.77l.58.43c.57.44,1.16.86,1.76,1.27l.67.45c.78.51,1.58,1,2.41,1.47,10.7,6,25.11,6.56,34.66-1.15,4.75-3.84,8.43-9.63,14.38-11,11-2.57,19.43,11.48,30.71,12.54,10.26,1,17.86-8.66,25.32-15.76.64-.61,1.3-1.21,2-1.79C401.17,393.44,401.39,393.27,401.6,393.08Z" style="fill: rgb(224, 224, 224); transform-origin: 362.295px 356.743px;" id="eli06o6fr526i" class="animable"></path></g><g id="freepik--Floor--inject-3" class="animable animator-hidden" style="transform-origin: 248.225px 460px;"><path d="M446.31,460c0,.14-88.69.26-198.07.26s-198.1-.12-198.1-.26,88.67-.26,198.1-.26S446.31,459.87,446.31,460Z" style="fill: rgb(38, 50, 56); transform-origin: 248.225px 460px;" id="elmqhxpoocsg" class="animable"></path></g><g id="freepik--Stars--inject-3" class="animable" style="transform-origin: 249.44px 192.215px;"><g id="els1bbxa507r8"><circle cx="403.86" cy="125.37" r="16.58" style="fill: rgb(69, 90, 100); transform-origin: 403.86px 125.37px; transform: rotate(-87.87deg);" class="animable"></circle></g><path d="M409.26,119a2.71,2.71,0,1,1,2.64,2.76A2.7,2.7,0,0,1,409.26,119Z" style="fill: rgb(38, 50, 56); transform-origin: 411.969px 119.051px;" id="eltpm182ok5u" class="animable"></path><path d="M414.67,125.33a1.58,1.58,0,1,1,1.54,1.61A1.58,1.58,0,0,1,414.67,125.33Z" style="fill: rgb(38, 50, 56); transform-origin: 416.25px 125.361px;" id="el1qo812n7h24" class="animable"></path><path d="M412.56,130.16a.58.58,0,1,1,0,1.16.57.57,0,0,1-.56-.59A.58.58,0,0,1,412.56,130.16Z" style="fill: rgb(38, 50, 56); transform-origin: 412.57px 130.74px;" id="el5qrxfz4lz95" class="animable"></path><path d="M371.06,199.47l.57,1a6.92,6.92,0,0,0,2.76,2.76l1,.57-1,.57a6.85,6.85,0,0,0-2.76,2.76l-.57,1-.57-1a6.79,6.79,0,0,0-2.76-2.76l-1-.57,1-.57a6.85,6.85,0,0,0,2.76-2.76Z" style="fill: rgb(69, 90, 100); transform-origin: 371.06px 203.8px;" id="elfdw6p7n3pn" class="animable"></path><path d="M147.68,112.67l1,1.8a12,12,0,0,0,4.77,4.76l1.79,1-1.79,1a12,12,0,0,0-4.77,4.77l-1,1.79-1-1.79a12,12,0,0,0-4.76-4.77l-1.8-1,1.8-1a12,12,0,0,0,4.76-4.76Z" style="fill: rgb(69, 90, 100); transform-origin: 147.68px 120.23px;" id="elcmegu1bp52h" class="animable"></path><path d="M83.74,53.56l.37.66A4.38,4.38,0,0,0,85.87,56l.66.36-.66.36a4.38,4.38,0,0,0-1.76,1.76l-.37.66-.36-.66a4.38,4.38,0,0,0-1.76-1.76L81,56.34l.66-.36a4.38,4.38,0,0,0,1.76-1.76Z" style="fill: rgb(69, 90, 100); transform-origin: 83.765px 56.35px;" id="elhkm2kcb8u6" class="animable"></path><path d="M184.13,334.82l.18.33a2.26,2.26,0,0,0,.88.88l.33.18-.33.18a2.32,2.32,0,0,0-.88.88l-.18.33-.18-.33a2.26,2.26,0,0,0-.88-.88l-.33-.18.33-.18a2.19,2.19,0,0,0,.88-.88Z" style="fill: rgb(69, 90, 100); transform-origin: 184.13px 336.21px;" id="elyg8z2knpd6h" class="animable"></path><path d="M147.86,214.24l.18.33a2.26,2.26,0,0,0,.88.88l.33.18-.33.18a2.26,2.26,0,0,0-.88.88l-.18.33-.18-.33a2.19,2.19,0,0,0-.88-.88l-.33-.18.33-.18a2.19,2.19,0,0,0,.88-.88Z" style="fill: rgb(69, 90, 100); transform-origin: 147.86px 215.63px;" id="elgwrx1vlorz7" class="animable"></path><path d="M440.64,180.51l.18.33a2.19,2.19,0,0,0,.88.88l.33.18-.33.18a2.19,2.19,0,0,0-.88.88l-.18.33-.18-.33a2.19,2.19,0,0,0-.88-.88l-.33-.18.33-.18a2.19,2.19,0,0,0,.88-.88Z" style="fill: rgb(69, 90, 100); transform-origin: 440.64px 181.9px;" id="elo8gwjeuek4" class="animable"></path><path d="M59.67,179l.37.66a4.38,4.38,0,0,0,1.76,1.76l.66.36-.66.36A4.38,4.38,0,0,0,60,183.93l-.37.66-.36-.66a4.38,4.38,0,0,0-1.76-1.76l-.66-.36.66-.36a4.38,4.38,0,0,0,1.76-1.76Z" style="fill: rgb(69, 90, 100); transform-origin: 59.655px 181.795px;" id="el4lkc02hbnl6" class="animable"></path><path d="M334.33,326l.37.66a4.42,4.42,0,0,0,1.75,1.76l.67.36-.67.36a4.42,4.42,0,0,0-1.75,1.76l-.37.66-.36-.66a4.45,4.45,0,0,0-1.76-1.76l-.66-.36.66-.36a4.45,4.45,0,0,0,1.76-1.76Z" style="fill: rgb(69, 90, 100); transform-origin: 334.335px 328.78px;" id="elgslnrcwi0h" class="animable"></path><path d="M355.54,46.83l1,1.79a12,12,0,0,0,4.76,4.77l1.79,1-1.79,1a12,12,0,0,0-4.76,4.76l-1,1.79-1-1.79a12,12,0,0,0-4.77-4.76l-1.79-1,1.79-1a12,12,0,0,0,4.77-4.77Z" style="fill: rgb(69, 90, 100); transform-origin: 355.535px 54.385px;" id="elleep38qptw" class="animable"></path><path d="M116.2,263.73a21.68,21.68,0,0,1-7.37-38.26,21.67,21.67,0,1,0,21.45,37.29A21.59,21.59,0,0,1,116.2,263.73Z" style="fill: rgb(69, 90, 100); transform-origin: 112.942px 246.284px;" id="el85sxfe8m6h4" class="animable"></path></g><g id="freepik--Plants--inject-3" class="animable animator-hidden" style="transform-origin: 252.652px 406.6px;"><path d="M403.63,428.19c1.48,2.11,4.35,1.41,5.68.12a10.71,10.71,0,0,0,2.4-4.93c1.17-4.07,2.35-8.33,1.48-12.48a7,7,0,0,0-1.59-3.39,3.62,3.62,0,0,0-3.43-1.14c-1.45.38-2.35,1.8-3,3.15a29.82,29.82,0,0,0-2.94,12.76,10.39,10.39,0,0,0,1.4,5.91" style="fill: rgb(126, 87, 194); transform-origin: 407.85px 417.915px;" id="eldv7l272kp9q" class="animable"></path><g id="elou5pzygfec"><g style="opacity: 0.2; transform-origin: 407.85px 417.915px;" class="animable"><path d="M403.63,428.19c1.48,2.11,4.35,1.41,5.68.12a10.71,10.71,0,0,0,2.4-4.93c1.17-4.07,2.35-8.33,1.48-12.48a7,7,0,0,0-1.59-3.39,3.62,3.62,0,0,0-3.43-1.14c-1.45.38-2.35,1.8-3,3.15a29.82,29.82,0,0,0-2.94,12.76,10.39,10.39,0,0,0,1.4,5.91" id="eln4s0l68wpg" class="animable" style="transform-origin: 407.85px 417.915px;"></path></g></g><path d="M409.16,438.87a12.73,12.73,0,0,1,7.94-1,6.52,6.52,0,0,1,3.93,1.75c1,1.08,1.16,3,0,3.91a3.74,3.74,0,0,1-2.48.63c-2.1,0-4.42-.39-6.1.87-1,.72-1.6,1.92-2.74,2.27a2.71,2.71,0,0,1-3-1.32,4.62,4.62,0,0,1-.33-3.41A5.22,5.22,0,0,1,409.16,438.87Z" style="fill: rgb(126, 87, 194); transform-origin: 414.018px 442.502px;" id="eljs3dluch7s" class="animable"></path><path d="M399.57,431.21a7.66,7.66,0,0,0,1.2-7.06,13.71,13.71,0,0,0-4.19-6.07,22.62,22.62,0,0,0-7.49-4.42,8,8,0,0,0-3.37-.57,3.55,3.55,0,0,0-2.83,1.71c-.78,1.5,0,3.33.79,4.81a57.31,57.31,0,0,0,4.92,7.5c1.47,1.9,3.16,3.78,5.41,4.63s4.58.76,5.78-.8" style="fill: rgb(126, 87, 194); transform-origin: 391.861px 422.678px;" id="elypxou90cpxc" class="animable"></path><path d="M403.53,460a4.53,4.53,0,0,0,.13-1c.07-.7.15-1.57.26-2.61a38,38,0,0,1,.58-3.84,30.56,30.56,0,0,1,1.4-4.53,16.6,16.6,0,0,1,2.31-4.1,8.61,8.61,0,0,1,2.93-2.43,8.27,8.27,0,0,1,2.46-.77,5.51,5.51,0,0,0,.95-.13,3.82,3.82,0,0,0-1,0,7.48,7.48,0,0,0-2.57.67,8.62,8.62,0,0,0-3.08,2.45,16.4,16.4,0,0,0-2.4,4.18,27.89,27.89,0,0,0-1.38,4.6,31.4,31.4,0,0,0-.51,3.89c-.09,1.11-.12,2-.13,2.63A3.87,3.87,0,0,0,403.53,460Z" style="fill: rgb(38, 50, 56); transform-origin: 409.009px 450.279px;" id="el9s5dzw4dkbf" class="animable"></path><path d="M403.71,458a2.28,2.28,0,0,0,0-.45v-1.27c0-1.1,0-2.7.06-4.67.1-3.95.43-9.39,1.09-15.38s1.54-11.37,2.34-15.24c.18-1,.37-1.84.55-2.6s.32-1.43.46-2l.3-1.24a2.54,2.54,0,0,0,.08-.44,1.53,1.53,0,0,0-.16.42l-.37,1.22c-.16.53-.33,1.18-.52,1.95s-.41,1.63-.62,2.59a144.3,144.3,0,0,0-2.45,15.26c-.66,6-1,11.46-1,15.41,0,2,0,3.58.07,4.68,0,.52.05.94.07,1.28A1.72,1.72,0,0,0,403.71,458Z" style="fill: rgb(38, 50, 56); transform-origin: 406.03px 436.355px;" id="el6nhgdtfm1sa" class="animable"></path><path d="M403.73,447.46a7.53,7.53,0,0,0,0-1.33c-.05-.85-.17-2.08-.41-3.6a49.14,49.14,0,0,0-1.17-5.24,46.63,46.63,0,0,0-2.2-6.21,33,33,0,0,0-6.44-10,15.56,15.56,0,0,0-1.51-1.4c-.23-.2-.44-.4-.65-.55l-.59-.41a6.79,6.79,0,0,0-1.12-.71,36.47,36.47,0,0,1,3.67,3.27,34.78,34.78,0,0,1,6.28,10,50.73,50.73,0,0,1,2.21,6.15c.57,1.93.95,3.7,1.24,5.19s.44,2.72.53,3.57A10.61,10.61,0,0,0,403.73,447.46Z" style="fill: rgb(38, 50, 56); transform-origin: 396.7px 432.735px;" id="el90g5otneyye" class="animable"></path><path d="M98.07,353.1a2,2,0,0,1,.58-.08,3.67,3.67,0,0,1,1.68.37,6.05,6.05,0,0,1,2.18,1.77,13.27,13.27,0,0,1,1.84,3.41c1.05,2.76,1.55,6.35,2.13,10.53a141.71,141.71,0,0,1,1.31,14.42v0c.24.81.78,1.77,1.67,1.84a2.43,2.43,0,0,0,1.27-.42c.42-.24.83-.51,1.24-.79a23.35,23.35,0,0,1,2.61-1.61,4.28,4.28,0,0,1,3.15-.51,4,4,0,0,1,2.29,2.37,6.72,6.72,0,0,1,.18,3.39c-.38,2.28-1.52,4.36-2.4,6.54s-1.9,4.42-2.87,6.7l-1.49,3.47c-.25.58-.5,1.17-.76,1.76a3.36,3.36,0,0,0-.29.86,1.43,1.43,0,0,0,.07.83c.19.49.88.39,1.44.11l1.8-.8a35.34,35.34,0,0,1,3.76-1.47,13.14,13.14,0,0,1,4.08-.71,4.72,4.72,0,0,1,2.09.5,3.29,3.29,0,0,1,1.51,1.59,7,7,0,0,1,.2,4.3,22.21,22.21,0,0,1-1.35,4.11,54.49,54.49,0,0,1-4.21,7.75,11.39,11.39,0,0,0-1.1,1.87,1.15,1.15,0,0,0,0,.91.76.76,0,0,0,.12.19c0,.05.14.17.13.13a.6.6,0,0,0,.36,0,29.71,29.71,0,0,0,3.95-2.11,24.8,24.8,0,0,1,4.17-2,7.62,7.62,0,0,1,2.34-.48,2.94,2.94,0,0,1,2.31.85,3.46,3.46,0,0,1,.88,2.31,9.72,9.72,0,0,1-.24,2.41,20.21,20.21,0,0,1-1.64,4.52,41,41,0,0,1-5.35,8.09,67.38,67.38,0,0,1-6.83,7.12A46.61,46.61,0,0,1,117,450.2l-4,3.1,0,0-.12.09-.13-.05-4.69-1.81a46.55,46.55,0,0,1-4.61-1.91,67.42,67.42,0,0,1-8.59-4.86,41,41,0,0,1-7.45-6.22,19.36,19.36,0,0,1-2.87-3.86,9.38,9.38,0,0,1-.93-2.24,3.44,3.44,0,0,1,.18-2.46,3,3,0,0,1,2-1.49,8,8,0,0,1,2.38-.21,24.89,24.89,0,0,1,4.58.76,29.93,29.93,0,0,0,4.39.88.71.71,0,0,0,.35-.06s.07-.12.09-.17a.9.9,0,0,0,.06-.22,1.14,1.14,0,0,0-.26-.86,10.39,10.39,0,0,0-1.6-1.48,55.64,55.64,0,0,1-6.25-6.22,22.17,22.17,0,0,1-2.48-3.55,7,7,0,0,1-1-4.18,3.28,3.28,0,0,1,1-2,4.88,4.88,0,0,1,1.87-1.07,13.12,13.12,0,0,1,4.11-.49,35.53,35.53,0,0,1,4,.32l2,.26c.61.1,1.3,0,1.34-.53a1.58,1.58,0,0,0-.17-.81,3.67,3.67,0,0,0-.54-.74q-.61-.75-1.23-1.47l-2.42-2.9-4.67-5.59c-1.48-1.83-3.17-3.5-4.18-5.58a6.62,6.62,0,0,1-.8-3.29,4,4,0,0,1,1.51-2.93A4.27,4.27,0,0,1,91,386a22.93,22.93,0,0,1,3,.79c.47.15.94.29,1.41.4a2.36,2.36,0,0,0,1.34,0c.83-.31,1.07-1.39,1.07-2.24v0a140.93,140.93,0,0,1-2.88-14.16,52.78,52.78,0,0,1-1-10.68,12.68,12.68,0,0,1,.74-3.79,6.17,6.17,0,0,1,1.51-2.36,3.71,3.71,0,0,1,1.48-.87,2.14,2.14,0,0,1,.58-.09,3.56,3.56,0,0,0-2,1,6.1,6.1,0,0,0-1.45,2.34,12.87,12.87,0,0,0-.69,3.76,53.21,53.21,0,0,0,1.07,10.63A143,143,0,0,0,98.06,385v0h0a4.19,4.19,0,0,1-.24,1.44,1.84,1.84,0,0,1-1,1.12,2.65,2.65,0,0,1-1.53,0c-.49-.12-1-.26-1.44-.41a25.54,25.54,0,0,0-2.92-.77,4,4,0,0,0-2.9.37,3.66,3.66,0,0,0-1.35,2.65,6.34,6.34,0,0,0,.77,3.11c1,2,2.65,3.64,4.14,5.48l4.69,5.59,2.43,2.89,1.23,1.46a2.51,2.51,0,0,1,.81,1.89,1,1,0,0,1-.76.86,2.55,2.55,0,0,1-1.06,0l-2-.25a37.48,37.48,0,0,0-4-.31,12.61,12.61,0,0,0-4,.48,3.35,3.35,0,0,0-2.54,2.66,6.53,6.53,0,0,0,1,3.88,21.61,21.61,0,0,0,2.44,3.48,54.6,54.6,0,0,0,6.2,6.15,10.56,10.56,0,0,1,1.67,1.56,1.64,1.64,0,0,1,.36,1.23,1.68,1.68,0,0,1-.09.32.8.8,0,0,1-.19.32.92.92,0,0,1-.7.22,27.81,27.81,0,0,1-4.52-.89,25.23,25.23,0,0,0-4.48-.74,7.51,7.51,0,0,0-2.23.2,2.51,2.51,0,0,0-1.65,1.22,3,3,0,0,0-.13,2.12,8.78,8.78,0,0,0,.87,2.11,19.25,19.25,0,0,0,2.8,3.76,40.81,40.81,0,0,0,7.36,6.14,69.1,69.1,0,0,0,8.53,4.82,47.39,47.39,0,0,0,4.58,1.9l4.68,1.8-.25,0,.05,0,3.94-3.09a49.12,49.12,0,0,0,3.84-3.15,67.32,67.32,0,0,0,6.77-7.07,40.34,40.34,0,0,0,5.29-8,19.45,19.45,0,0,0,1.6-4.41,8.76,8.76,0,0,0,.23-2.27,3,3,0,0,0-.74-2,2.48,2.48,0,0,0-1.93-.7,7.56,7.56,0,0,0-2.19.45,24.87,24.87,0,0,0-4.08,2,29.14,29.14,0,0,1-4.07,2.15,1,1,0,0,1-.74,0,1,1,0,0,1-.27-.25,1.05,1.05,0,0,1-.17-.29,1.56,1.56,0,0,1,0-1.27,10.82,10.82,0,0,1,1.15-2,55.12,55.12,0,0,0,4.18-7.67,22.12,22.12,0,0,0,1.33-4,6.55,6.55,0,0,0-.16-4,3.35,3.35,0,0,0-3.2-1.83,12.58,12.58,0,0,0-3.93.68,36.06,36.06,0,0,0-3.71,1.44l-1.81.81a2.61,2.61,0,0,1-1,.26,1,1,0,0,1-1-.6,2.51,2.51,0,0,1,.23-2c.25-.59.5-1.17.76-1.76l1.49-3.46,2.89-6.7c.9-2.2,2-4.24,2.39-6.44a6.28,6.28,0,0,0-.15-3.2,3.7,3.7,0,0,0-2-2.16,4,4,0,0,0-2.89.48,24.92,24.92,0,0,0-2.57,1.58c-.42.28-.83.55-1.26.8a2.65,2.65,0,0,1-1.46.45,1.79,1.79,0,0,1-1.31-.77,3.92,3.92,0,0,1-.65-1.31v0c-.15-5.39-.72-10.21-1.24-14.39s-1-7.76-2-10.5a13.09,13.09,0,0,0-1.78-3.39,6.18,6.18,0,0,0-2.12-1.78A3.67,3.67,0,0,0,98.07,353.1Z" style="fill: rgb(38, 50, 56); transform-origin: 109.203px 403.195px;" id="eliw5ol66avz" class="animable"></path><path d="M113.64,460.2c-1.4-9.22-4.64-30.71-6.62-44.81s-3.77-26.86-5.12-36.09c-.68-4.6-1.23-8.33-1.62-10.93-.18-1.28-.33-2.28-.43-3l-.11-.77c0-.18,0-.27,0-.27s0,.09,0,.26.08.44.14.77c.11.69.27,1.69.48,3,.43,2.57,1,6.3,1.71,10.91,1.4,9.23,3.23,22,5.21,36.08s5.18,35.59,6.53,44.82" style="fill: rgb(38, 50, 56); transform-origin: 106.775px 412.265px;" id="elb3tiqgnj7k8" class="animable"></path><path d="M93.35,390.54a2.47,2.47,0,0,1,.5.34c.32.24.76.59,1.31,1,1.08.88,2.55,2.15,4.14,3.58l4.07,3.67,1.23,1.1a2.61,2.61,0,0,1,.44.43,3.49,3.49,0,0,1-.51-.34c-.31-.24-.76-.59-1.3-1-1.07-.9-2.53-2.18-4.12-3.61L95,392.07,93.78,391A2.69,2.69,0,0,1,93.35,390.54Z" style="fill: rgb(38, 50, 56); transform-origin: 99.195px 395.6px;" id="el6jhhzvi2xvc" class="animable"></path><path d="M105.76,400.38c-.06-.05,2.41-3.19,5.52-7s5.69-6.89,5.75-6.84-2.41,3.2-5.52,7S105.82,400.43,105.76,400.38Z" style="fill: rgb(38, 50, 56); transform-origin: 111.395px 393.46px;" id="elu064nnjlx9e" class="animable"></path><path d="M107.82,422.16a2.84,2.84,0,0,1,.49-.38l1.39-1c1.17-.82,2.79-1.95,4.53-3.27s3.28-2.55,4.39-3.45l1.31-1.07a3.27,3.27,0,0,1,.5-.37s-.14.18-.43.45-.71.67-1.25,1.14c-1.08.95-2.6,2.22-4.35,3.53s-3.38,2.43-4.59,3.2c-.6.39-1.09.69-1.44.9A2.32,2.32,0,0,1,107.82,422.16Z" style="fill: rgb(38, 50, 56); transform-origin: 114.125px 417.39px;" id="elrw4flpz104" class="animable"></path><path d="M94.63,415.74a2.17,2.17,0,0,1,.55.19l1.43.63c1.21.54,2.87,1.3,4.69,2.16s3.47,1.66,4.65,2.25c.6.29,1.07.53,1.4.71a2.44,2.44,0,0,1,.5.29,2,2,0,0,1-.55-.19l-1.43-.63c-1.21-.54-2.87-1.31-4.69-2.17s-3.47-1.65-4.66-2.24c-.59-.29-1.06-.54-1.39-.71A2.65,2.65,0,0,1,94.63,415.74Z" style="fill: rgb(38, 50, 56); transform-origin: 101.24px 418.855px;" id="el5b0zvfv4h2f" class="animable"></path><path d="M94,435.2a3.32,3.32,0,0,1,.69.26l1.84.79c1.55.69,3.68,1.65,6,2.73s4.47,2.08,6,2.81l1.8.88a3.69,3.69,0,0,1,.65.36,2.91,2.91,0,0,1-.69-.26l-1.85-.8c-1.55-.68-3.68-1.64-6-2.73s-4.47-2.07-6-2.8l-1.8-.88A3.79,3.79,0,0,1,94,435.2Z" style="fill: rgb(38, 50, 56); transform-origin: 102.49px 439.115px;" id="elsa2vl8j7mb" class="animable"></path><path d="M110.66,442.73a3.74,3.74,0,0,1,.61-.5l1.73-1.29c1.45-1.09,3.45-2.6,5.61-4.32s4.09-3.34,5.47-4.51l1.64-1.39a3.53,3.53,0,0,1,.62-.48,3.9,3.9,0,0,1-.55.56c-.36.36-.9.86-1.58,1.46-1.35,1.22-3.25,2.86-5.42,4.58s-4.19,3.22-5.68,4.26c-.74.53-1.35.94-1.77,1.22A5.14,5.14,0,0,1,110.66,442.73Z" style="fill: rgb(38, 50, 56); transform-origin: 118.5px 436.485px;" id="elmh5pgkfdfal" class="animable"></path></g><g id="freepik--Rocket--inject-3" class="animable" style="transform-origin: 249.505px 262.21px;"><path d="M323.11,431.8a38.11,38.11,0,0,0-13.26-3.35c-13-.9-25.15-6.75-34.85-15.5q-.6-.54-1.2-1.05c-6.19-5.2-12.68-13.37-14-21.34-5-29.61-8.68-70.41-8.42-91.85h-3s-.33,52.11-10,96.18a13.91,13.91,0,0,1-8.34,9.75,45.83,45.83,0,0,0-22.28,20.07,14.16,14.16,0,0,1-14.44,7.08,34,34,0,0,0-38.16,27.78l189.72.1A39.16,39.16,0,0,0,323.11,431.8Z" style="fill: rgb(235, 235, 235); transform-origin: 250.02px 379.19px;" id="elenbbu8mxj76" class="animable"></path><path d="M216.13,279.83H176V143.74a20,20,0,0,1,20-20h0a20,20,0,0,1,20,20Z" style="fill: rgb(126, 87, 194); transform-origin: 196.065px 201.785px;" id="el2d8hrt0cv0d" class="animable"></path><path d="M216.13,279.83H176V143.74a20,20,0,0,1,20-20h0a20,20,0,0,1,20,20Z" style="fill: rgb(69, 90, 100); transform-origin: 196.065px 201.785px;" id="elqj2lk7jvqz" class="animable"></path><path d="M216.13,141.56c0,.14-8.95.26-20,.26s-20-.12-20-.26,9-.26,20-.26S216.13,141.41,216.13,141.56Z" style="fill: rgb(38, 50, 56); transform-origin: 196.13px 141.56px;" id="el4zdpok8lcjw" class="animable"></path><path d="M216.13,176.3c0,.15-8.95.26-20,.26s-20-.11-20-.26,9-.26,20-.26S216.13,176.16,216.13,176.3Z" style="fill: rgb(38, 50, 56); transform-origin: 196.13px 176.3px;" id="elfaljexxhlzs" class="animable"></path><path d="M205,176.3c-.14,0-.26-7.78-.26-17.37s.12-17.37.26-17.37.26,7.77.26,17.37S205.16,176.3,205,176.3Z" style="fill: rgb(38, 50, 56); transform-origin: 205px 158.93px;" id="el6zf1lpob6xt" class="animable"></path><path d="M200.31,151.67a1.41,1.41,0,1,1-1.41-1.41A1.41,1.41,0,0,1,200.31,151.67Z" style="fill: rgb(38, 50, 56); transform-origin: 198.9px 151.67px;" id="eltu2cwdh22z" class="animable"></path><path d="M200.31,163.68a1.41,1.41,0,1,1-1.41-1.41A1.41,1.41,0,0,1,200.31,163.68Z" style="fill: rgb(38, 50, 56); transform-origin: 198.9px 163.68px;" id="ell0ydclah6gs" class="animable"></path><path d="M216.13,247c0,.14-8.95.26-20,.26s-20-.12-20-.26,9-.26,20-.26S216.13,246.83,216.13,247Z" style="fill: rgb(38, 50, 56); transform-origin: 196.13px 247px;" id="elmh30mugpspn" class="animable"></path><path d="M205,247c-.14,0-.26-7.78-.26-17.37s.12-17.37.26-17.37.26,7.77.26,17.37S205.16,247,205,247Z" style="fill: rgb(38, 50, 56); transform-origin: 205px 229.63px;" id="el3nkqjkr3ts5" class="animable"></path><circle cx="198.9" cy="222.33" r="1.41" style="fill: rgb(38, 50, 56); transform-origin: 198.9px 222.33px;" id="elpvn2urtw3gr" class="animable"></circle><circle cx="198.9" cy="234.35" r="1.41" style="fill: rgb(38, 50, 56); transform-origin: 198.9px 234.35px;" id="eljutxxakw0po" class="animable"></circle><path d="M176.16,212c0-.14,9-.26,20-.26s20,.12,20,.26-8.95.26-20,.26S176.16,212.09,176.16,212Z" style="fill: rgb(38, 50, 56); transform-origin: 196.16px 212px;" id="elccl4xy0va3j" class="animable"></path><path d="M187.27,212c-.14,0-.26-7.78-.26-17.37s.12-17.37.26-17.37.26,7.77.26,17.37S187.42,212,187.27,212Z" style="fill: rgb(38, 50, 56); transform-origin: 187.27px 194.63px;" id="el3do6lpxsdyb" class="animable"></path><path d="M192,187.32a1.41,1.41,0,1,0,1.41-1.42A1.41,1.41,0,0,0,192,187.32Z" style="fill: rgb(38, 50, 56); transform-origin: 193.41px 187.31px;" id="elnfvribtnh2" class="animable"></path><path d="M192,199.33a1.41,1.41,0,1,0,1.41-1.41A1.41,1.41,0,0,0,192,199.33Z" style="fill: rgb(38, 50, 56); transform-origin: 193.41px 199.33px;" id="eldgiu7tmsri" class="animable"></path><path d="M178.67,145a2.76,2.76,0,0,1,0-.8,18.91,18.91,0,0,1,.26-2.17,25,25,0,0,1,2.21-6.86,20.18,20.18,0,0,1,2.14-3.36,15.67,15.67,0,0,1,2.3-2.31,11.83,11.83,0,0,1,1-.73,5,5,0,0,1,.81-.48,2.71,2.71,0,0,1,.73-.33c.05.09-.95.63-2.31,1.83a17.18,17.18,0,0,0-2.17,2.32,22.77,22.77,0,0,0-2.05,3.3,29.41,29.41,0,0,0-2.3,6.69C178.9,143.87,178.76,145,178.67,145Z" style="fill: rgb(250, 250, 250); transform-origin: 183.381px 136.48px;" id="elwot4dzpu8q" class="animable"></path><path d="M194.9,126.25c0,.14-.6.36-1.4.5s-1.46.13-1.48,0,.6-.37,1.4-.51S194.88,126.1,194.9,126.25Z" style="fill: rgb(250, 250, 250); transform-origin: 193.46px 126.494px;" id="elx2qcss7frcf" class="animable"></path><path d="M280.59,279.83h40.09V143.74a20,20,0,0,0-20.05-20h0a20,20,0,0,0-20,20Z" style="fill: rgb(126, 87, 194); transform-origin: 300.635px 201.785px;" id="elijwgshy1v2" class="animable"></path><path d="M280.59,279.83h40.09V143.74a20,20,0,0,0-20.05-20h0a20,20,0,0,0-20,20Z" style="fill: rgb(69, 90, 100); transform-origin: 300.635px 201.785px;" id="el4u2cp097f9q" class="animable"></path><path d="M280.59,141.56c0-.15,9-.26,20-.26s20,.11,20,.26-8.95.26-20,.26S280.59,141.7,280.59,141.56Z" style="fill: rgb(38, 50, 56); transform-origin: 300.59px 141.56px;" id="el09k9wjrhj03q" class="animable"></path><path d="M280.59,176.3c0-.14,9-.26,20-.26s20,.12,20,.26-8.95.26-20,.26S280.59,176.45,280.59,176.3Z" style="fill: rgb(38, 50, 56); transform-origin: 300.59px 176.3px;" id="el9gvnqyfwuf6" class="animable"></path><path d="M291.7,176.3c-.14,0-.26-7.78-.26-17.37s.12-17.37.26-17.37.26,7.77.26,17.37S291.85,176.3,291.7,176.3Z" style="fill: rgb(38, 50, 56); transform-origin: 291.7px 158.93px;" id="elzcklwf3c72m" class="animable"></path><path d="M296.4,151.67a1.41,1.41,0,1,0,1.41-1.41A1.41,1.41,0,0,0,296.4,151.67Z" style="fill: rgb(38, 50, 56); transform-origin: 297.81px 151.67px;" id="elvljkukxl7bc" class="animable"></path><path d="M296.4,163.68a1.41,1.41,0,1,0,1.41-1.41A1.41,1.41,0,0,0,296.4,163.68Z" style="fill: rgb(38, 50, 56); transform-origin: 297.81px 163.68px;" id="eli7ae6aorlwa" class="animable"></path><path d="M280.59,247c0-.14,9-.26,20-.26s20,.12,20,.26-8.95.26-20,.26S280.59,247.11,280.59,247Z" style="fill: rgb(38, 50, 56); transform-origin: 300.59px 247px;" id="elalbq87hd4wm" class="animable"></path><path d="M291.7,247c-.14,0-.26-7.78-.26-17.37s.12-17.37.26-17.37S292,220,292,229.6,291.85,247,291.7,247Z" style="fill: rgb(38, 50, 56); transform-origin: 291.72px 229.63px;" id="el2fagkdvx6kg" class="animable"></path><circle cx="297.81" cy="222.33" r="1.41" style="fill: rgb(38, 50, 56); transform-origin: 297.81px 222.33px;" id="elxo7d1zmd26a" class="animable"></circle><circle cx="297.81" cy="234.35" r="1.41" style="fill: rgb(38, 50, 56); transform-origin: 297.81px 234.35px;" id="el5n14563elt" class="animable"></circle><path d="M320.56,212c0,.14-8.95.26-20,.26s-20-.12-20-.26,9-.26,20-.26S320.56,211.81,320.56,212Z" style="fill: rgb(38, 50, 56); transform-origin: 300.56px 212px;" id="el3mbwvrqeka" class="animable"></path><path d="M309.44,212c-.14,0-.26-7.78-.26-17.37s.12-17.37.26-17.37.26,7.77.26,17.37S309.59,212,309.44,212Z" style="fill: rgb(38, 50, 56); transform-origin: 309.44px 194.63px;" id="elc32e0zbxg9s" class="animable"></path><path d="M304.74,187.32a1.41,1.41,0,1,1-1.41-1.42A1.41,1.41,0,0,1,304.74,187.32Z" style="fill: rgb(38, 50, 56); transform-origin: 303.33px 187.31px;" id="el56jfjvnd82" class="animable"></path><path d="M304.74,199.33a1.41,1.41,0,1,1-1.41-1.41A1.41,1.41,0,0,1,304.74,199.33Z" style="fill: rgb(38, 50, 56); transform-origin: 303.33px 199.33px;" id="elolj6dsifsri" class="animable"></path><path d="M318,145c-.08,0-.23-1.12-.62-2.9a29.51,29.51,0,0,0-2.31-6.69,21.16,21.16,0,0,0-2.05-3.3,17.16,17.16,0,0,0-2.16-2.32c-1.36-1.2-2.37-1.74-2.32-1.83a2.54,2.54,0,0,1,.74.33,5,5,0,0,1,.81.48,11.83,11.83,0,0,1,1,.73,15.67,15.67,0,0,1,2.3,2.31,20.18,20.18,0,0,1,2.14,3.36,25.24,25.24,0,0,1,2.2,6.86,19.35,19.35,0,0,1,.27,2.17A2.18,2.18,0,0,1,318,145Z" style="fill: rgb(255, 255, 255); transform-origin: 313.288px 136.48px;" id="el3mw8ul03c6o" class="animable"></path><path d="M301.81,126.25c0-.15.69-.15,1.49,0s1.42.36,1.4.51-.69.14-1.49,0S301.79,126.39,301.81,126.25Z" style="fill: rgb(255, 255, 255); transform-origin: 303.255px 126.503px;" id="el6inbplyj9m8" class="animable"></path><path d="M236.5,70.15,222.44,96.69a54.12,54.12,0,0,0-6.31,25.38V306.72l24.65,15.75h17.09l23-15.75V122.88A54.26,54.26,0,0,0,275,98.46L260.69,70a9.54,9.54,0,0,0-8.53-5.25h-7.08A9.55,9.55,0,0,0,236.5,70.15Z" style="fill: rgb(126, 87, 194); transform-origin: 248.5px 193.61px;" id="elybgmgn5xyx" class="animable"></path><path d="M216.13,292h-62s0-27.33,25.93-46.78,36.08-63.44,36.08-63.44Z" style="fill: rgb(126, 87, 194); transform-origin: 185.135px 236.89px;" id="elal88rlix1u6" class="animable"></path><path d="M280.85,292h62s0-27.33-25.93-46.78-36.07-63.44-36.07-63.44Z" style="fill: rgb(126, 87, 194); transform-origin: 311.85px 236.89px;" id="elw6bt8dgcy6l" class="animable"></path><g id="el7x7pf9ndm5w"><path d="M216.13,292h-62s0-27.33,25.93-46.78,36.08-63.44,36.08-63.44Z" style="opacity: 0.2; transform-origin: 185.135px 236.89px;" class="animable"></path></g><g id="elscavf5hije"><path d="M280.85,292h62s0-27.33-25.93-46.78-36.07-63.44-36.07-63.44Z" style="opacity: 0.2; transform-origin: 311.85px 236.89px;" class="animable"></path></g><path d="M220.69,195.49c-.14,0-.26-13.63-.26-30.45s.12-30.45.26-30.45S221,148.22,221,165,220.83,195.49,220.69,195.49Z" style="fill: rgb(250, 250, 250); transform-origin: 220.715px 165.04px;" id="elzses49d5l5r" class="animable"></path><path d="M221.37,116.53a7.44,7.44,0,0,1,.26,2.77,7.44,7.44,0,0,1-.26,2.77,7.7,7.7,0,0,1-.26-2.77A7.7,7.7,0,0,1,221.37,116.53Z" style="fill: rgb(250, 250, 250); transform-origin: 221.372px 119.3px;" id="elnickg0waklc" class="animable"></path><path d="M241.38,69.38c.13.06-4.11,8.57-9.46,19s-9.79,18.84-9.92,18.77,4.11-8.57,9.46-19S241.25,69.31,241.38,69.38Z" style="fill: rgb(250, 250, 250); transform-origin: 231.69px 88.265px;" id="ellg1lgx7aka" class="animable"></path><path d="M209.42,210.61a.74.74,0,0,1,0,.24c0,.19-.07.42-.12.71l-.22,1.14a11.94,11.94,0,0,1-.38,1.55,39.58,39.58,0,0,1-3.86,9.37,66.88,66.88,0,0,1-8.93,12.09c-3.81,4.2-8.36,8.45-13.17,12.85a93.35,93.35,0,0,0-12.28,13.58,75.08,75.08,0,0,0-4.36,6.7,66.91,66.91,0,0,0-3.11,6.24,56,56,0,0,0-3.17,9.57c-.3,1.15-.42,2.07-.57,2.68l-.15.7a.64.64,0,0,1-.07.24.87.87,0,0,1,0-.24l.1-.71c.11-.62.2-1.55.47-2.72a53,53,0,0,1,3-9.67,64.35,64.35,0,0,1,3.07-6.3,74.2,74.2,0,0,1,4.35-6.77,92.63,92.63,0,0,1,12.32-13.69c4.81-4.39,9.36-8.62,13.17-12.79a68.09,68.09,0,0,0,9-11.95,42,42,0,0,0,4-9.23,15.19,15.19,0,0,0,.42-1.53c.1-.44.19-.81.26-1.13s.13-.51.18-.7A.74.74,0,0,1,209.42,210.61Z" style="fill: rgb(250, 250, 250); transform-origin: 184.226px 249.44px;" id="el2vgpo5dqf0w" class="animable"></path><path d="M253.83,128.1H243.14a11.72,11.72,0,0,1-11.72-11.72h0a11.72,11.72,0,0,1,11.72-11.72h10.69a11.71,11.71,0,0,1,11.72,11.72h0A11.72,11.72,0,0,1,253.83,128.1Z" style="fill: rgb(255, 255, 255); transform-origin: 248.485px 116.38px;" id="elkbq7eqyrjyl" class="animable"></path><g id="elzzcjcdb080j"><polyline points="216.13 306.72 240.78 322.46 257.87 322.46 280.85 306.72 280.85 300.23 216.13 300.23 216.13 306.72" style="opacity: 0.4; transform-origin: 248.49px 311.345px;" class="animable"></polyline></g></g><defs>     <filter id="active" height="200%">         <feMorphology in="SourceAlpha" result="DILATED" operator="dilate" radius="2"></feMorphology>                <feFlood flood-color="#32DFEC" flood-opacity="1" result="PINK"></feFlood>        <feComposite in="PINK" in2="DILATED" operator="in" result="OUTLINE"></feComposite>        <feMerge>            <feMergeNode in="OUTLINE"></feMergeNode>            <feMergeNode in="SourceGraphic"></feMergeNode>        </feMerge>    </filter>    <filter id="hover" height="200%">        <feMorphology in="SourceAlpha" result="DILATED" operator="dilate" radius="2"></feMorphology>                <feFlood flood-color="#ff0000" flood-opacity="0.5" result="PINK"></feFlood>        <feComposite in="PINK" in2="DILATED" operator="in" result="OUTLINE"></feComposite>        <feMerge>            <feMergeNode in="OUTLINE"></feMergeNode>            <feMergeNode in="SourceGraphic"></feMergeNode>        </feMerge>            <feColorMatrix type="matrix" values="0   0   0   0   0                0   1   0   0   0                0   0   0   0   0                0   0   0   1   0 "></feColorMatrix>    </filter></defs></svg>